<svg xmlns="http://www.w3.org/2000/svg" viewBox="0 0 680 420" width="100%">
  <rect width="680" height="420" fill="#0F1729" rx="12"/>

  <g opacity="0.04">
    <line x1="60" y1="370" x2="620" y2="370" stroke="#fff" stroke-width="0.5"/>
    <line x1="60" y1="320" x2="620" y2="320" stroke="#fff" stroke-width="0.5"/>
    <line x1="60" y1="270" x2="620" y2="270" stroke="#fff" stroke-width="0.5"/>
    <line x1="60" y1="220" x2="620" y2="220" stroke="#fff" stroke-width="0.5"/>
    <line x1="60" y1="170" x2="620" y2="170" stroke="#fff" stroke-width="0.5"/>
    <line x1="60" y1="120" x2="620" y2="120" stroke="#fff" stroke-width="0.5"/>
  </g>

  <text x="340" y="80" text-anchor="middle" font-family="system-ui,-apple-system,sans-serif" font-size="12" fill="#85B7EB" opacity="0.5" letter-spacing="3">ETF 对 比 分 析 系 列</text>

  <rect x="100" y="110" width="480" height="1" fill="#85B7EB" opacity="0.08"/>

  <text x="340" y="160" text-anchor="middle" font-family="system-ui,-apple-system,sans-serif" font-size="32" font-weight="700" fill="#FFFFFF" letter-spacing="2">5只沪深300ETF</text>
  <text x="340" y="205" text-anchor="middle" font-family="system-ui,-apple-system,sans-serif" font-size="32" font-weight="700" fill="#85B7EB" letter-spacing="2">全面对比</text>

  <text x="340" y="240" text-anchor="middle" font-family="system-ui,-apple-system,sans-serif" font-size="13" fill="#FFFFFF" opacity="0.4" letter-spacing="1">规模 · 费率 · 跟踪误差 · 夏普比率 · 11维度</text>

  <rect x="320" y="258" width="40" height="1" fill="#85B7EB" opacity="0.3"/>

  <rect x="92" y="296" width="88" height="75" fill="#378ADD" rx="2"/>
  <rect x="92" y="296" width="88" height="42" fill="#378ADD" rx="2" opacity="0.35"/>
  <rect x="197" y="316" width="88" height="55" fill="#E84393" rx="2"/>
  <rect x="197" y="316" width="88" height="30" fill="#E84393" rx="2" opacity="0.35"/>
  <rect x="302" y="278" width="88" height="93" fill="#E8A838" rx="2"/>
  <rect x="302" y="278" width="88" height="50" fill="#E8A838" rx="2" opacity="0.35"/>
  <rect x="407" y="310" width="88" height="61" fill="#6C5CE7" rx="2"/>
  <rect x="407" y="310" width="88" height="35" fill="#6C5CE7" rx="2" opacity="0.35"/>
  <rect x="512" y="362" width="88" height="9" fill="#00B894" rx="2"/>
  <rect x="512" y="362" width="88" height="5" fill="#00B894" rx="2" opacity="0.35"/>

  <polyline points="136,290 241,305 346,260 451,295" fill="none" stroke="#FFFFFF" stroke-width="1" stroke-dasharray="3,3" opacity="0.12"/>

  <text x="340" y="413" text-anchor="middle" font-family="system-ui,-apple-system,sans-serif" font-size="11" fill="#FFFFFF" opacity="0.25" letter-spacing="1">不推荐，只给数据 · 2026-05-31</text>
</svg>