<svg xmlns="http://www.w3.org/2000/svg" viewBox="0 0 520 300">
<rect width="520" height="300" fill="white" rx="8"/>
<text x="260" y="24" text-anchor="middle" font-size="13" font-weight="bold" fill="#333">5只沪深300ETF规模对比（亿元）</text>
<rect x="60" y="60.0" width="64" height="180.0" fill="#378ADD" rx="3"/><text x="92" y="54.0" text-anchor="middle" font-size="11" fill="#333">1565亿</text><text x="92" y="262" text-anchor="middle" font-size="11" fill="#666">510300</text><text x="92" y="280" text-anchor="middle" font-size="10" fill="#888">华泰柏瑞</text><rect x="144" y="99.85435032579534" width="64" height="140.14564967420466" fill="#E84393" rx="3"/><text x="176" y="93.85435032579534" text-anchor="middle" font-size="11" fill="#333">1219亿</text><text x="176" y="262" text-anchor="middle" font-size="11" fill="#666">510310</text><text x="176" y="280" text-anchor="middle" font-size="10" fill="#888">易方达</text><rect x="228" y="142.45688003066311" width="64" height="97.5431199693369" fill="#E8A838" rx="3"/><text x="260" y="136.45688003066311" text-anchor="middle" font-size="11" fill="#333">848亿</text><text x="260" y="262" text-anchor="middle" font-size="11" fill="#666">510330</text><text x="260" y="280" text-anchor="middle" font-size="10" fill="#888">华夏</text><rect x="312" y="148.78114220007666" width="64" height="91.21885779992334" fill="#6C5CE7" rx="3"/><text x="344" y="142.78114220007666" text-anchor="middle" font-size="11" fill="#333">793亿</text><text x="344" y="262" text-anchor="middle" font-size="11" fill="#666">159919</text><text x="344" y="280" text-anchor="middle" font-size="10" fill="#888">嘉实</text><rect x="396" y="231.03104637792256" width="64" height="8.968953622077423" fill="#00B894" rx="3"/><text x="428" y="225.03104637792256" text-anchor="middle" font-size="11" fill="#333">78亿</text><text x="428" y="262" text-anchor="middle" font-size="11" fill="#666">515330</text><text x="428" y="280" text-anchor="middle" font-size="10" fill="#888">天弘</text><line x1="50" y1="136.42468378689153" x2="470" y2="136.42468378689153" stroke="#E74C3C" stroke-width="1.5" stroke-dasharray="5,3"/><text x="48" y="140.42468378689153" text-anchor="end" font-size="9" fill="#E74C3C">均值901亿</text></svg>