<svg xmlns="http://www.w3.org/2000/svg" viewBox="0 0 600 460">
<rect width="600" height="460" fill="white" rx="8"/>
<text x="300" y="28" text-anchor="middle" font-size="14" font-weight="bold" fill="#333">沪深300ETF市场规模分布</text>
<text x="300" y="44" text-anchor="middle" font-size="11" fill="#888">5只ETF合计资产规模约4504亿元</text>

<!-- 环形图 -->
<g transform="translate(300, 220)">
<path d="M 0.0,-150.0 A 150,150 0 0,1 122.7,86.3 L 57.3,40.3 A 70,70 0 0,0 0.0,-70.0 Z" fill="#378ADD" stroke="white" stroke-width="2"/><text x="97.6" y="-46.68474388795167" text-anchor="middle" font-size="12" fill="white" font-weight="bold">34.8%</text><path d="M 122.7,86.3 A 150,150 0 0,1 -101.4,110.5 L -47.3,51.6 A 70,70 0 0,0 57.3,40.3 Z" fill="#E84393" stroke="white" stroke-width="2"/><text x="11.8" y="113.36429703250387" text-anchor="middle" font-size="12" fill="white" font-weight="bold">27.1%</text><path d="M -101.4,110.5 A 150,150 0 0,1 -140.6,-52.2 L -65.6,-24.3 A 70,70 0 0,0 -47.3,51.6 Z" fill="#E8A838" stroke="white" stroke-width="2"/><text x="-106.9" y="29.76963151033736" text-anchor="middle" font-size="12" fill="white" font-weight="bold">18.8%</text><path d="M -140.6,-52.2 A 150,150 0 0,1 -16.3,-149.1 L -7.6,-69.6 A 70,70 0 0,0 -65.6,-24.3 Z" fill="#6C5CE7" stroke="white" stroke-width="2"/><text x="-67.6" y="-82.75209954576547" text-anchor="middle" font-size="12" fill="white" font-weight="bold">17.6%</text><path d="M -16.3,-149.1 A 150,150 0 0,1 -0.0,-150.0 L -0.0,-70.0 A 70,70 0 0,0 -7.6,-69.6 Z" fill="#00B894" stroke="white" stroke-width="2"/></g><text x="300" y="214" text-anchor="middle" font-size="14" font-weight="bold" fill="#333">总规模</text><text x="300" y="234" text-anchor="middle" font-size="16" font-weight="bold" fill="#333">4504亿</text><rect x="30" y="392" width="12" height="12" rx="2" fill="#378ADD"/><text x="46" y="402" font-size="10" fill="#555">510300 34.8%</text><rect x="140" y="392" width="12" height="12" rx="2" fill="#E84393"/><text x="156" y="402" font-size="10" fill="#555">510310 27.1%</text><rect x="250" y="392" width="12" height="12" rx="2" fill="#E8A838"/><text x="266" y="402" font-size="10" fill="#555">510330 18.8%</text><rect x="360" y="392" width="12" height="12" rx="2" fill="#6C5CE7"/><text x="376" y="402" font-size="10" fill="#555">159919 17.6%</text><rect x="470" y="392" width="12" height="12" rx="2" fill="#00B894"/><text x="486" y="402" font-size="10" fill="#555">515330 1.7%</text></svg>