<svg xmlns="http://www.w3.org/2000/svg" viewBox="0 0 600 300">
<rect width="600" height="300" fill="white" rx="8"/>
<text x="300" y="22" text-anchor="middle" font-size="13" font-weight="bold" fill="#333">近5日日均成交额（子弹图）</text>
<text x="300" y="38" text-anchor="middle" font-size="10" fill="#888">数据来源：非凸科技 | 2026-05-25~05-29</text>
<rect x="8" y="50" width="6" height="32" rx="2" fill="#378ADD"/><text x="20" y="70" font-size="11" fill="#333" font-weight="bold">510300</text><text x="85" y="70" font-size="10" fill="#888">华泰柏瑞</text><rect x="115" y="54" width="400" height="24" rx="3" fill="#f0f0f0"/><rect x="115" y="54" width="400.0" height="24" rx="3" fill="#378ADD" opacity="0.85"/><text x="519.0" y="67" font-size="11" fill="#333" font-weight="bold">42.7亿</text><text x="519.0" y="80" font-size="9" fill="#E74C3C">净+流入2704万</text><rect x="8" y="96" width="6" height="32" rx="2" fill="#E84393"/><text x="20" y="116" font-size="11" fill="#333" font-weight="bold">510310</text><text x="85" y="116" font-size="10" fill="#888">易方达</text><rect x="115" y="100" width="400" height="24" rx="3" fill="#f0f0f0"/><rect x="115" y="100" width="252.0" height="24" rx="3" fill="#E84393" opacity="0.85"/><text x="371.0" y="113" font-size="11" fill="#333" font-weight="bold">26.9亿</text><text x="371.0" y="126" font-size="9" fill="#27AE60">净流出2702万</text><rect x="8" y="142" width="6" height="32" rx="2" fill="#E8A838"/><text x="20" y="162" font-size="11" fill="#333" font-weight="bold">510330</text><text x="85" y="162" font-size="10" fill="#888">华夏</text><rect x="115" y="146" width="400" height="24" rx="3" fill="#f0f0f0"/><rect x="115" y="146" width="200.5" height="24" rx="3" fill="#E8A838" opacity="0.85"/><text x="319.5" y="159" font-size="11" fill="#333" font-weight="bold">21.4亿</text><text x="319.5" y="172" font-size="9" fill="#27AE60">净流出1103万</text><rect x="8" y="188" width="6" height="32" rx="2" fill="#6C5CE7"/><text x="20" y="208" font-size="11" fill="#333" font-weight="bold">159919</text><text x="85" y="208" font-size="10" fill="#888">嘉实</text><rect x="115" y="192" width="400" height="24" rx="3" fill="#f0f0f0"/><rect x="115" y="192" width="201.4" height="24" rx="3" fill="#6C5CE7" opacity="0.85"/><text x="320.4" y="205" font-size="11" fill="#333" font-weight="bold">21.5亿</text><text x="320.4" y="218" font-size="9" fill="#E74C3C">净+流入1082万</text><rect x="8" y="234" width="6" height="32" rx="2" fill="#00B894"/><text x="20" y="254" font-size="11" fill="#333" font-weight="bold">515330</text><text x="85" y="254" font-size="10" fill="#888">天弘</text><rect x="115" y="238" width="400" height="24" rx="3" fill="#f0f0f0"/><rect x="115" y="238" width="1.9" height="24" rx="3" fill="#00B894" opacity="0.85"/><text x="120.9" y="251" font-size="11" fill="#333" font-weight="bold">0.2亿</text><text x="120.9" y="264" font-size="9" fill="#E74C3C">净+流入159万</text><line x1="326.1" y1="45" x2="326.1" y2="275" stroke="#E74C3C" stroke-width="1.5" stroke-dasharray="4,3"/><text x="326.1" y="40" text-anchor="middle" font-size="9" fill="#E74C3C">均值23亿</text></svg>