<svg xmlns="http://www.w3.org/2000/svg" viewBox="0 0 600 300">
<rect width="600" height="300" fill="white" rx="8"/>
<text x="300" y="22" text-anchor="middle" font-size="13" font-weight="bold" fill="#333">资产规模对比（子弹图）</text>
<text x="300" y="38" text-anchor="middle" font-size="10" fill="#888">红色虚线=规模均值901亿，左下方=费率低+跟踪准（好），右上方=费率高+跟踪差（差）</text>
<rect x="160" y="36" width="24" height="10" rx="2" fill="#E8F5E9" stroke="#27AE60" stroke-width="0.5"/><text x="188" y="45" font-size="9" fill="#666">好</text><rect x="215" y="36" width="24" height="10" rx="2" fill="#FFF3E0" stroke="#F39C12" stroke-width="0.5"/><text x="243" y="45" font-size="9" fill="#666">中</text><rect x="270" y="36" width="24" height="10" rx="2" fill="#FFEBEE" stroke="#E74C3C" stroke-width="0.5"/><text x="298" y="45" font-size="9" fill="#666">差</text><rect x="8" y="50" width="6" height="32" rx="2" fill="#378ADD"/><text x="20" y="70" font-size="11" fill="#333" font-weight="bold">510300</text><text x="85" y="70" font-size="10" fill="#888">华泰柏瑞</text><rect x="115" y="54" width="345.3" height="24" rx="3" fill="#E8F5E9"/><rect x="460.3" y="54" width="345.3" height="24" fill="#FFF3E0"/><rect x="805.5" y="54" width="-290.5" height="24" rx="3" fill="#FFEBEE"/><rect x="115" y="54" width="400.0" height="24" rx="3" fill="#378ADD" opacity="0.9"/><text x="519.0" y="70" font-size="11" fill="#333" font-weight="bold">1565亿</text><rect x="8" y="96" width="6" height="32" rx="2" fill="#E84393"/><text x="20" y="116" font-size="11" fill="#333" font-weight="bold">510310</text><text x="85" y="116" font-size="10" fill="#888">易方达</text><rect x="115" y="100" width="345.3" height="24" rx="3" fill="#E8F5E9"/><rect x="460.3" y="100" width="345.3" height="24" fill="#FFF3E0"/><rect x="805.5" y="100" width="-290.5" height="24" rx="3" fill="#FFEBEE"/><rect x="115" y="100" width="311.4" height="24" rx="3" fill="#E84393" opacity="0.9"/><text x="430.4" y="116" font-size="11" fill="#333" font-weight="bold">1219亿</text><rect x="8" y="142" width="6" height="32" rx="2" fill="#E8A838"/><text x="20" y="162" font-size="11" fill="#333" font-weight="bold">510330</text><text x="85" y="162" font-size="10" fill="#888">华夏</text><rect x="115" y="146" width="345.3" height="24" rx="3" fill="#E8F5E9"/><rect x="460.3" y="146" width="345.3" height="24" fill="#FFF3E0"/><rect x="805.5" y="146" width="-290.5" height="24" rx="3" fill="#FFEBEE"/><rect x="115" y="146" width="216.8" height="24" rx="3" fill="#E8A838" opacity="0.9"/><text x="335.8" y="162" font-size="11" fill="#333" font-weight="bold">848亿</text><rect x="8" y="188" width="6" height="32" rx="2" fill="#6C5CE7"/><text x="20" y="208" font-size="11" fill="#333" font-weight="bold">159919</text><text x="85" y="208" font-size="10" fill="#888">嘉实</text><rect x="115" y="192" width="345.3" height="24" rx="3" fill="#E8F5E9"/><rect x="460.3" y="192" width="345.3" height="24" fill="#FFF3E0"/><rect x="805.5" y="192" width="-290.5" height="24" rx="3" fill="#FFEBEE"/><rect x="115" y="192" width="202.7" height="24" rx="3" fill="#6C5CE7" opacity="0.9"/><text x="321.7" y="208" font-size="11" fill="#333" font-weight="bold">793亿</text><rect x="8" y="234" width="6" height="32" rx="2" fill="#00B894"/><text x="20" y="254" font-size="11" fill="#333" font-weight="bold">515330</text><text x="85" y="254" font-size="10" fill="#888">天弘</text><rect x="115" y="238" width="345.3" height="24" rx="3" fill="#E8F5E9"/><rect x="460.3" y="238" width="345.3" height="24" fill="#FFF3E0"/><rect x="805.5" y="238" width="-290.5" height="24" rx="3" fill="#FFEBEE"/><rect x="115" y="238" width="19.9" height="24" rx="3" fill="#00B894" opacity="0.9"/><text x="138.9" y="254" font-size="11" fill="#333" font-weight="bold">78亿</text><line x1="345.2" y1="45" x2="345.2" y2="275" stroke="#E74C3C" stroke-width="1.5" stroke-dasharray="4,3"/><text x="345.2" y="40" text-anchor="middle" font-size="9" fill="#E74C3C">均值901亿</text></svg>