<svg xmlns="http://www.w3.org/2000/svg" viewBox="0 0 520 280">
<rect width="520" height="280" fill="white" rx="8"/>
<text x="260" y="28" text-anchor="middle" font-size="14" font-weight="bold" fill="#333">跟踪误差(近1年) — 放大版</text>
<text x="260" y="44" text-anchor="middle" font-size="11" fill="#888">Y轴从0.730%开始（单位：%）</text>
<text x="35" y="244.0" text-anchor="end" font-size="10" fill="#888">0.730</text><line x1="42" y1="240.0" x2="490" y2="240.0" stroke="#eee" stroke-width="0.5"/><text x="35" y="190.0" text-anchor="end" font-size="10" fill="#888">0.733</text><line x1="42" y1="186.0" x2="490" y2="186.0" stroke="#eee" stroke-width="0.5"/><text x="35" y="136.0" text-anchor="end" font-size="10" fill="#888">0.736</text><line x1="42" y1="132.0" x2="490" y2="132.0" stroke="#eee" stroke-width="0.5"/><text x="35" y="82.0" text-anchor="end" font-size="10" fill="#888">0.739</text><line x1="42" y1="78.0" x2="490" y2="78.0" stroke="#eee" stroke-width="0.5"/><text x="35" y="64.0" text-anchor="end" font-size="10" fill="#888">0.740</text><line x1="42" y1="60.0" x2="490" y2="60.0" stroke="#eee" stroke-width="0.5"/><polyline points="50.0,112.2 160.0,159.0 270.0,126.6 380.0,137.4 490.0,103.2" fill="none" stroke="#378ADD" stroke-width="2" stroke-dasharray="4,3"/><circle cx="50.0" cy="112.2" r="6" fill="#378ADD" stroke="white" stroke-width="2"/><text x="50.0" y="100.2000000000002" text-anchor="middle" font-size="11" fill="#333">0.7371%</text><text x="50.0" y="134.20000000000022" text-anchor="middle" font-size="10" fill="#666">510300</text><circle cx="160.0" cy="159.0" r="6" fill="#E84393" stroke="white" stroke-width="2"/><text x="160.0" y="146.999999999999" text-anchor="middle" font-size="11" fill="#333">0.7345%</text><text x="160.0" y="180.999999999999" text-anchor="middle" font-size="10" fill="#666">510310</text><circle cx="270.0" cy="126.6" r="6" fill="#E8A838" stroke="white" stroke-width="2"/><text x="270.0" y="114.6000000000006" text-anchor="middle" font-size="11" fill="#333">0.7363%</text><text x="270.0" y="148.6000000000006" text-anchor="middle" font-size="10" fill="#666">510330</text><circle cx="380.0" cy="137.4" r="6" fill="#6C5CE7" stroke="white" stroke-width="2"/><text x="380.0" y="125.39999999999941" text-anchor="middle" font-size="11" fill="#333">0.7357%</text><text x="380.0" y="159.3999999999994" text-anchor="middle" font-size="10" fill="#666">159919</text><circle cx="490.0" cy="103.2" r="6" fill="#00B894" stroke="white" stroke-width="2"/><text x="490.0" y="91.19999999999919" text-anchor="middle" font-size="11" fill="#333">0.7376%</text><text x="490.0" y="125.19999999999919" text-anchor="middle" font-size="10" fill="#666">515330</text></svg>