<svg xmlns="http://www.w3.org/2000/svg" viewBox="0 0 600 450">
<rect width="600" height="450" fill="white" rx="8"/>
<text x="300" y="28" text-anchor="middle" font-size="14" font-weight="bold" fill="#333">沪深300ETF 5维风险画像</text>
<text x="300" y="44" text-anchor="middle" font-size="11" fill="#888">越靠近外圈表现越好</text>
<polygon points="300.0,170.0 328.5,190.7 317.6,224.3 282.4,224.3 271.5,190.7" fill="none" stroke="#ddd" stroke-width="0.8"/><polygon points="300.0,140.0 357.1,181.5 335.3,248.5 264.7,248.5 242.9,181.5" fill="none" stroke="#ddd" stroke-width="0.8"/><polygon points="300.0,110.0 385.6,172.2 352.9,272.8 247.1,272.8 214.4,172.2" fill="none" stroke="#ddd" stroke-width="0.8"/><polygon points="300.0,80.0 414.1,162.9 370.5,297.1 229.5,297.1 185.9,162.9" fill="none" stroke="#ddd" stroke-width="0.8"/><line x1="300" y1="200" x2="300.0" y2="80.0" stroke="#ddd" stroke-width="0.8"/><text x="300.0" y="70.4" text-anchor="middle" font-size="11" fill="#666">跟踪误差</text><line x1="300" y1="200" x2="414.1" y2="162.9" stroke="#ddd" stroke-width="0.8"/><text x="423.3" y="160.0" text-anchor="middle" font-size="11" fill="#666">年化波动</text><line x1="300" y1="200" x2="370.5" y2="297.1" stroke="#ddd" stroke-width="0.8"/><text x="376.2" y="304.8" text-anchor="middle" font-size="11" fill="#666">夏普比率</text><line x1="300" y1="200" x2="229.5" y2="297.1" stroke="#ddd" stroke-width="0.8"/><text x="223.8" y="304.8" text-anchor="middle" font-size="11" fill="#666">最大回撤</text><line x1="300" y1="200" x2="185.9" y2="162.9" stroke="#ddd" stroke-width="0.8"/><text x="176.7" y="160.0" text-anchor="middle" font-size="11" fill="#666">信息比率</text><polygon points="300.0,172.5 311.4,196.3 331.6,243.6 270.7,240.3 242.4,181.3" fill="#378ADD" fill-opacity="0.1" stroke="#378ADD" stroke-width="2.5"/><circle cx="300.0" cy="172.5" r="3" fill="#378ADD"/><circle cx="311.4" cy="196.3" r="3" fill="#378ADD"/><circle cx="331.6" cy="243.6" r="3" fill="#378ADD"/><circle cx="270.7" cy="240.3" r="3" fill="#378ADD"/><circle cx="242.4" cy="181.3" r="3" fill="#378ADD"/><polygon points="300.0,92.0 402.7,166.6 363.5,287.4 236.5,287.4 197.3,166.6" fill="#E84393" fill-opacity="0.1" stroke="#E84393" stroke-width="2.5"/><circle cx="300.0" cy="92.0" r="3" fill="#E84393"/><circle cx="402.7" cy="166.6" r="3" fill="#E84393"/><circle cx="363.5" cy="287.4" r="3" fill="#E84393"/><circle cx="236.5" cy="287.4" r="3" fill="#E84393"/><circle cx="197.3" cy="166.6" r="3" fill="#E84393"/><polygon points="300.0,147.7 402.7,166.6 343.2,259.5 257.8,258.1 230.7,177.5" fill="#E8A838" fill-opacity="0.1" stroke="#E8A838" stroke-width="1.5"/><circle cx="300.0" cy="147.7" r="3" fill="#E8A838"/><circle cx="402.7" cy="166.6" r="3" fill="#E8A838"/><circle cx="343.2" cy="259.5" r="3" fill="#E8A838"/><circle cx="257.8" cy="258.1" r="3" fill="#E8A838"/><circle cx="230.7" cy="177.5" r="3" fill="#E8A838"/><polygon points="300.0,129.2 402.7,166.6 330.2,241.6 262.4,251.7 250.3,183.9" fill="#6C5CE7" fill-opacity="0.1" stroke="#6C5CE7" stroke-width="1.5"/><circle cx="300.0" cy="129.2" r="3" fill="#6C5CE7"/><circle cx="402.7" cy="166.6" r="3" fill="#6C5CE7"/><circle cx="330.2" cy="241.6" r="3" fill="#6C5CE7"/><circle cx="262.4" cy="251.7" r="3" fill="#6C5CE7"/><circle cx="250.3" cy="183.9" r="3" fill="#6C5CE7"/><polygon points="300.0,188.0 402.7,166.6 307.1,209.7 292.9,209.7 288.6,196.3" fill="#00B894" fill-opacity="0.1" stroke="#00B894" stroke-width="1.5"/><circle cx="300.0" cy="188.0" r="3" fill="#00B894"/><circle cx="402.7" cy="166.6" r="3" fill="#00B894"/><circle cx="307.1" cy="209.7" r="3" fill="#00B894"/><circle cx="292.9" cy="209.7" r="3" fill="#00B894"/><circle cx="288.6" cy="196.3" r="3" fill="#00B894"/><rect x="120" y="392" width="12" height="12" rx="2" fill="#378ADD"/><text x="136" y="402" font-size="11" fill="#333" font-weight="bold">510300</text><rect x="480" y="392" width="12" height="12" rx="2" fill="#E84393"/><text x="496" y="402" font-size="11" fill="#333" font-weight="bold">510310</text><rect x="60" y="362" width="12" height="12" rx="2" fill="#E8A838"/><text x="76" y="372" font-size="11" fill="#333" font-weight="bold">510330</text><rect x="540" y="362" width="12" height="12" rx="2" fill="#6C5CE7"/><text x="556" y="372" font-size="11" fill="#333" font-weight="bold">159919</text><rect x="300" y="422" width="12" height="12" rx="2" fill="#00B894"/><text x="316" y="432" font-size="11" fill="#333" font-weight="bold">515330</text></svg>