<svg xmlns="http://www.w3.org/2000/svg" viewBox="0 0 600 380">
<rect width="600" height="380" fill="white" rx="8"/>
<text x="300" y="24" text-anchor="middle" font-size="14" font-weight="bold" fill="#333">管理费率 vs 跟踪误差（气泡大小=规模）</text>
<line x1="60" y1="330" x2="570" y2="330" stroke="#ccc" stroke-width="1"/><text x="60.0" y="348" text-anchor="middle" font-size="10" fill="#888">0.0</text><line x1="60.0" y1="330" x2="60.0" y2="335" stroke="#ccc" stroke-width="1"/><text x="143.33333333333334" y="348" text-anchor="middle" font-size="10" fill="#888">0.1</text><line x1="143.33333333333334" y1="330" x2="143.33333333333334" y2="335" stroke="#ccc" stroke-width="1"/><text x="226.66666666666669" y="348" text-anchor="middle" font-size="10" fill="#888">0.2</text><line x1="226.66666666666669" y1="330" x2="226.66666666666669" y2="335" stroke="#ccc" stroke-width="1"/><text x="310.0" y="348" text-anchor="middle" font-size="10" fill="#888">0.3</text><line x1="310.0" y1="330" x2="310.0" y2="335" stroke="#ccc" stroke-width="1"/><text x="393.33333333333337" y="348" text-anchor="middle" font-size="10" fill="#888">0.4</text><line x1="393.33333333333337" y1="330" x2="393.33333333333337" y2="335" stroke="#ccc" stroke-width="1"/><text x="476.6666666666667" y="348" text-anchor="middle" font-size="10" fill="#888">0.5</text><line x1="476.6666666666667" y1="330" x2="476.6666666666667" y2="335" stroke="#ccc" stroke-width="1"/><text x="560.0" y="348" text-anchor="middle" font-size="10" fill="#888">0.6</text><line x1="560.0" y1="330" x2="560.0" y2="335" stroke="#ccc" stroke-width="1"/><text x="315" y="368" text-anchor="middle" font-size="11" fill="#555">管理费率(%)</text><line x1="60" y1="35" x2="60" y2="330" stroke="#ccc" stroke-width="1"/><text x="52" y="295.3333333333333" text-anchor="end" font-size="10" fill="#888">0.730</text><line x1="60" y1="291.3333333333333" x2="55" y2="291.3333333333333" stroke="#ccc" stroke-width="1"/><text x="52" y="237.33333333333334" text-anchor="end" font-size="10" fill="#888">0.733</text><line x1="60" y1="233.33333333333334" x2="55" y2="233.33333333333334" stroke="#ccc" stroke-width="1"/><text x="52" y="179.33333333333334" text-anchor="end" font-size="10" fill="#888">0.736</text><line x1="60" y1="175.33333333333334" x2="55" y2="175.33333333333334" stroke="#ccc" stroke-width="1"/><text x="52" y="121.33333333333334" text-anchor="end" font-size="10" fill="#888">0.739</text><line x1="60" y1="117.33333333333334" x2="55" y2="117.33333333333334" stroke="#ccc" stroke-width="1"/><text x="52" y="63.333333333333314" text-anchor="end" font-size="10" fill="#888">0.742</text><line x1="60" y1="59.333333333333314" x2="55" y2="59.333333333333314" stroke="#ccc" stroke-width="1"/><text x="14" y="190" text-anchor="middle" font-size="11" fill="#555" transform="rotate(-90,14,190)">跟踪误差(%)</text><line x1="143.33333333333334" y1="35" x2="143.33333333333334" y2="330" stroke="#f0f0f0" stroke-width="0.5" stroke-dasharray="3,3"/><line x1="226.66666666666669" y1="35" x2="226.66666666666669" y2="330" stroke="#f0f0f0" stroke-width="0.5" stroke-dasharray="3,3"/><line x1="310.0" y1="35" x2="310.0" y2="330" stroke="#f0f0f0" stroke-width="0.5" stroke-dasharray="3,3"/><line x1="393.33333333333337" y1="35" x2="393.33333333333337" y2="330" stroke="#f0f0f0" stroke-width="0.5" stroke-dasharray="3,3"/><line x1="476.6666666666667" y1="35" x2="476.6666666666667" y2="330" stroke="#f0f0f0" stroke-width="0.5" stroke-dasharray="3,3"/><line x1="60" y1="272.0" x2="570" y2="272.0" stroke="#f0f0f0" stroke-width="0.5" stroke-dasharray="3,3"/><line x1="60" y1="214.0" x2="570" y2="214.0" stroke="#f0f0f0" stroke-width="0.5" stroke-dasharray="3,3"/><line x1="60" y1="156.0" x2="570" y2="156.0" stroke="#f0f0f0" stroke-width="0.5" stroke-dasharray="3,3"/><line x1="60" y1="98.0" x2="570" y2="98.0" stroke="#f0f0f0" stroke-width="0.5" stroke-dasharray="3,3"/><circle cx="185.0" cy="154.1" r="43.0" fill="#378ADD" opacity="0.15"/><circle cx="185.0" cy="154.1" r="40.0" fill="#378ADD" opacity="0.8" stroke="white" stroke-width="2"/><text x="185.0" y="108.06666666666689" text-anchor="middle" font-size="10" fill="#333" font-weight="bold">510300</text><text x="185.0" y="348" text-anchor="middle" font-size="9" fill="#888">华泰柏瑞</text><circle cx="185.0" cy="204.3" r="35.54322979696114" fill="#E84393" opacity="0.15"/><circle cx="185.0" cy="204.3" r="32.54322979696114" fill="#E84393" opacity="0.8" stroke="white" stroke-width="2"/><text x="185.0" y="165.79010353637113" text-anchor="middle" font-size="10" fill="#333" font-weight="bold">510310</text><text x="185.0" y="362" text-anchor="middle" font-size="9" fill="#888">易方达</text><circle cx="185.0" cy="169.5" r="27.572273766303613" fill="#E8A838" opacity="0.15"/><circle cx="185.0" cy="169.5" r="24.572273766303613" fill="#E8A838" opacity="0.8" stroke="white" stroke-width="2"/><text x="185.0" y="138.96105956703036" text-anchor="middle" font-size="10" fill="#333" font-weight="bold">510330</text><text x="185.0" y="376" text-anchor="middle" font-size="9" fill="#888">华夏</text><circle cx="185.0" cy="181.1" r="26.389000941239743" fill="#6C5CE7" opacity="0.15"/><circle cx="185.0" cy="181.1" r="23.389000941239743" fill="#6C5CE7" opacity="0.8" stroke="white" stroke-width="2"/><text x="185.0" y="151.74433239209296" text-anchor="middle" font-size="10" fill="#333" font-weight="bold">159919</text><text x="185.0" y="390" text-anchor="middle" font-size="9" fill="#888">嘉实</text><circle cx="476.7" cy="144.4" r="11.0" fill="#00B894" opacity="0.15"/><circle cx="476.7" cy="144.4" r="8.0" fill="#00B894" opacity="0.8" stroke="white" stroke-width="2"/><text x="492.7" y="148.39999999999912" font-size="10" fill="#333" font-weight="bold">515330 天弘</text><text x="492.7" y="162.39999999999912" font-size="9" fill="#888">管理费0.50% 跟踪误差0.7376%</text></svg>