<svg xmlns="http://www.w3.org/2000/svg" viewBox="0 0 600 350">
<rect width="600" height="350" fill="white" rx="8"/>
<text x="300" y="28" text-anchor="middle" font-size="14" font-weight="bold" fill="#333">5只ETF风险指标排名对比</text>
<text x="300" y="44" text-anchor="middle" font-size="11" fill="#888">红色=第1(最优)，绿色=第5(最差)</text>
<text x="15" y="69" font-size="12" fill="#444">跟踪误差</text><rect x="115" y="53" width="82" height="24" rx="4" fill="#F39C12" opacity="0.9"/><text x="156" y="69" text-anchor="middle" font-size="12" fill="white" font-weight="bold">第4</text><text x="156" y="97" text-anchor="middle" font-size="9" fill="#888">510300</text><rect x="207" y="53" width="82" height="24" rx="4" fill="#E74C3C" opacity="0.9"/><text x="248" y="69" text-anchor="middle" font-size="12" fill="white" font-weight="bold">第1</text><text x="248" y="97" text-anchor="middle" font-size="9" fill="#888">510310</text><rect x="299" y="53" width="82" height="24" rx="4" fill="#95A5A6" opacity="0.9"/><text x="340" y="69" text-anchor="middle" font-size="12" fill="white" font-weight="bold">第3</text><text x="340" y="97" text-anchor="middle" font-size="9" fill="#888">510330</text><rect x="391" y="53" width="82" height="24" rx="4" fill="#3498DB" opacity="0.9"/><text x="432" y="69" text-anchor="middle" font-size="12" fill="white" font-weight="bold">第2</text><text x="432" y="97" text-anchor="middle" font-size="9" fill="#888">159919</text><rect x="483" y="53" width="82" height="24" rx="4" fill="#27AE60" opacity="0.9"/><text x="524" y="69" text-anchor="middle" font-size="12" fill="white" font-weight="bold">第5</text><text x="524" y="97" text-anchor="middle" font-size="9" fill="#888">515330</text><text x="15" y="124" font-size="12" fill="#444">年化波动率</text><rect x="115" y="108" width="82" height="24" rx="4" fill="#27AE60" opacity="0.9"/><text x="156" y="124" text-anchor="middle" font-size="12" fill="white" font-weight="bold">第5</text><text x="156" y="152" text-anchor="middle" font-size="9" fill="#888">510300</text><rect x="207" y="108" width="82" height="24" rx="4" fill="#E74C3C" opacity="0.9"/><text x="248" y="124" text-anchor="middle" font-size="12" fill="white" font-weight="bold">第1</text><text x="248" y="152" text-anchor="middle" font-size="9" fill="#888">510310</text><rect x="299" y="108" width="82" height="24" rx="4" fill="#3498DB" opacity="0.9"/><text x="340" y="124" text-anchor="middle" font-size="12" fill="white" font-weight="bold">第2</text><text x="340" y="152" text-anchor="middle" font-size="9" fill="#888">510330</text><rect x="391" y="108" width="82" height="24" rx="4" fill="#95A5A6" opacity="0.9"/><text x="432" y="124" text-anchor="middle" font-size="12" fill="white" font-weight="bold">第3</text><text x="432" y="152" text-anchor="middle" font-size="9" fill="#888">159919</text><rect x="483" y="108" width="82" height="24" rx="4" fill="#F39C12" opacity="0.9"/><text x="524" y="124" text-anchor="middle" font-size="12" fill="white" font-weight="bold">第4</text><text x="524" y="152" text-anchor="middle" font-size="9" fill="#888">515330</text><text x="15" y="179" font-size="12" fill="#444">夏普比率</text><rect x="115" y="163" width="82" height="24" rx="4" fill="#95A5A6" opacity="0.9"/><text x="156" y="179" text-anchor="middle" font-size="12" fill="white" font-weight="bold">第3</text><text x="156" y="207" text-anchor="middle" font-size="9" fill="#888">510300</text><rect x="207" y="163" width="82" height="24" rx="4" fill="#E74C3C" opacity="0.9"/><text x="248" y="179" text-anchor="middle" font-size="12" fill="white" font-weight="bold">第1</text><text x="248" y="207" text-anchor="middle" font-size="9" fill="#888">510310</text><rect x="299" y="163" width="82" height="24" rx="4" fill="#3498DB" opacity="0.9"/><text x="340" y="179" text-anchor="middle" font-size="12" fill="white" font-weight="bold">第2</text><text x="340" y="207" text-anchor="middle" font-size="9" fill="#888">510330</text><rect x="391" y="163" width="82" height="24" rx="4" fill="#F39C12" opacity="0.9"/><text x="432" y="179" text-anchor="middle" font-size="12" fill="white" font-weight="bold">第4</text><text x="432" y="207" text-anchor="middle" font-size="9" fill="#888">159919</text><rect x="483" y="163" width="82" height="24" rx="4" fill="#27AE60" opacity="0.9"/><text x="524" y="179" text-anchor="middle" font-size="12" fill="white" font-weight="bold">第5</text><text x="524" y="207" text-anchor="middle" font-size="9" fill="#888">515330</text><text x="15" y="234" font-size="12" fill="#444">最大回撤</text><rect x="115" y="218" width="82" height="24" rx="4" fill="#F39C12" opacity="0.9"/><text x="156" y="234" text-anchor="middle" font-size="12" fill="white" font-weight="bold">第4</text><text x="156" y="262" text-anchor="middle" font-size="9" fill="#888">510300</text><rect x="207" y="218" width="82" height="24" rx="4" fill="#E74C3C" opacity="0.9"/><text x="248" y="234" text-anchor="middle" font-size="12" fill="white" font-weight="bold">第1</text><text x="248" y="262" text-anchor="middle" font-size="9" fill="#888">510310</text><rect x="299" y="218" width="82" height="24" rx="4" fill="#3498DB" opacity="0.9"/><text x="340" y="234" text-anchor="middle" font-size="12" fill="white" font-weight="bold">第2</text><text x="340" y="262" text-anchor="middle" font-size="9" fill="#888">510330</text><rect x="391" y="218" width="82" height="24" rx="4" fill="#95A5A6" opacity="0.9"/><text x="432" y="234" text-anchor="middle" font-size="12" fill="white" font-weight="bold">第3</text><text x="432" y="262" text-anchor="middle" font-size="9" fill="#888">159919</text><rect x="483" y="218" width="82" height="24" rx="4" fill="#27AE60" opacity="0.9"/><text x="524" y="234" text-anchor="middle" font-size="12" fill="white" font-weight="bold">第5</text><text x="524" y="262" text-anchor="middle" font-size="9" fill="#888">515330</text><text x="15" y="289" font-size="12" fill="#444">信息比率</text><rect x="115" y="273" width="82" height="24" rx="4" fill="#95A5A6" opacity="0.9"/><text x="156" y="289" text-anchor="middle" font-size="12" fill="white" font-weight="bold">第3</text><text x="156" y="317" text-anchor="middle" font-size="9" fill="#888">510300</text><rect x="207" y="273" width="82" height="24" rx="4" fill="#E74C3C" opacity="0.9"/><text x="248" y="289" text-anchor="middle" font-size="12" fill="white" font-weight="bold">第1</text><text x="248" y="317" text-anchor="middle" font-size="9" fill="#888">510310</text><rect x="299" y="273" width="82" height="24" rx="4" fill="#3498DB" opacity="0.9"/><text x="340" y="289" text-anchor="middle" font-size="12" fill="white" font-weight="bold">第2</text><text x="340" y="317" text-anchor="middle" font-size="9" fill="#888">510330</text><rect x="391" y="273" width="82" height="24" rx="4" fill="#F39C12" opacity="0.9"/><text x="432" y="289" text-anchor="middle" font-size="12" fill="white" font-weight="bold">第4</text><text x="432" y="317" text-anchor="middle" font-size="9" fill="#888">159919</text><rect x="483" y="273" width="82" height="24" rx="4" fill="#27AE60" opacity="0.9"/><text x="524" y="289" text-anchor="middle" font-size="12" fill="white" font-weight="bold">第5</text><text x="524" y="317" text-anchor="middle" font-size="9" fill="#888">515330</text><rect x="80" y="337" width="10" height="10" rx="2" fill="#378ADD"/><text x="94" y="347" font-size="10" fill="#666">510300</text><rect x="180" y="337" width="10" height="10" rx="2" fill="#E84393"/><text x="194" y="347" font-size="10" fill="#666">510310</text><rect x="280" y="337" width="10" height="10" rx="2" fill="#E8A838"/><text x="294" y="347" font-size="10" fill="#666">510330</text><rect x="380" y="337" width="10" height="10" rx="2" fill="#6C5CE7"/><text x="394" y="347" font-size="10" fill="#666">159919</text><rect x="480" y="337" width="10" height="10" rx="2" fill="#00B894"/><text x="494" y="347" font-size="10" fill="#666">515330</text></svg>