<svg viewBox="0 0 680 1080" width="100%" xmlns="http://www.w3.org/2000/svg" role="img">
  <defs>
    <marker id="arrow" viewBox="0 0 10 10" refX="8" refY="5" markerWidth="6" markerHeight="6" orient="auto-start-reverse">
      <path d="M2 1L8 5L2 9" fill="none" stroke="#888780" stroke-width="1.5" stroke-linecap="round" stroke-linejoin="round"/>
    </marker>
  </defs>
  <rect width="680" height="830" fill="#fafafa" rx="0"/>
  <text x="340" y="28" text-anchor="middle" fill="#111" font-size="15" font-weight="500" font-family="sans-serif">ETF 数据架构三种方案对比</text>
  <text x="340" y="48" text-anchor="middle" fill="#666" font-size="13" font-family="sans-serif">数据流、复杂度、适用场景</text>
  <!-- A -->
  <rect x="18" y="68" width="210" height="340" rx="12" fill="#fff" stroke="#e0e0e0" stroke-width="0.5"/>
  <rect x="18" y="68" width="210" height="34" rx="12" fill="#FCEBEB" stroke="#F09595" stroke-width="0.5"/>
  <rect x="18" y="90" width="210" height="12" fill="#FCEBEB"/>
  <text x="123" y="86" text-anchor="middle" fill="#791F1F" font-size="13" font-weight="500" font-family="sans-serif">A · 当前架构</text>
  <rect x="30" y="112" width="186" height="28" rx="6" fill="#fff" stroke="#e0e0e0" stroke-width="0.5"/>
  <text x="123" y="127" text-anchor="middle" fill="#111" font-size="12" font-family="sans-serif">pipeline.py 八步</text>
  <line x1="123" y1="140" x2="123" y2="154" stroke="#888780" stroke-width="1" marker-end="url(#arrow)"/>
  <rect x="30" y="156" width="186" height="28" rx="6" fill="#fff" stroke="#e0e0e0" stroke-width="0.5"/>
  <text x="123" y="171" text-anchor="middle" fill="#111" font-size="12" font-family="sans-serif">etf_standard_data.json</text>
  <line x1="123" y1="184" x2="123" y2="198" stroke="#888780" stroke-width="1" marker-end="url(#arrow)"/>
  <rect x="30" y="200" width="186" height="28" rx="6" fill="#fff" stroke="#e0e0e0" stroke-width="0.5"/>
  <text x="123" y="215" text-anchor="middle" fill="#111" font-size="12" font-family="sans-serif">LocalJSONSource 读快照</text>
  <line x1="123" y1="228" x2="123" y2="242" stroke="#888780" stroke-width="1" marker-end="url(#arrow)"/>
  <rect x="30" y="244" width="186" height="28" rx="6" fill="#fff" stroke="#e0e0e0" stroke-width="0.5"/>
  <text x="123" y="259" text-anchor="middle" fill="#111" font-size="12" font-family="sans-serif">WeStockSource 叠加 L2</text>
  <line x1="123" y1="272" x2="123" y2="286" stroke="#888780" stroke-width="1" marker-end="url(#arrow)"/>
  <rect x="30" y="288" width="186" height="28" rx="6" fill="#fff" stroke="#e0e0e0" stroke-width="0.5"/>
  <text x="123" y="303" text-anchor="middle" fill="#111" font-size="12" font-family="sans-serif">服务端 L1+L2 merge</text>
  <line x1="123" y1="316" x2="123" y2="330" stroke="#888780" stroke-width="1" marker-end="url(#arrow)"/>
  <rect x="30" y="332" width="186" height="28" rx="6" fill="#fff" stroke="#e0e0e0" stroke-width="0.5"/>
  <text x="123" y="347" text-anchor="middle" fill="#111" font-size="12" font-family="sans-serif">客户端二次 fetch L2</text>
  <rect x="30" y="374" width="186" height="24" rx="6" fill="#FCEBEB" stroke="#F09595" stroke-width="0.5"/>
  <text x="123" y="388" text-anchor="middle" fill="#791F1F" font-size="11" font-family="sans-serif">3250行 · 89文件 · 127MB</text>
  <!-- B -->
  <rect x="240" y="68" width="200" height="340" rx="12" fill="#fff" stroke="#e0e0e0" stroke-width="0.5"/>
  <rect x="240" y="68" width="200" height="34" rx="12" fill="#FAEEDA" stroke="#EF9F27" stroke-width="0.5"/>
  <rect x="240" y="90" width="200" height="12" fill="#FAEEDA"/>
  <text x="340" y="86" text-anchor="middle" fill="#633806" font-size="13" font-weight="500" font-family="sans-serif">B · 纯实时聚合</text>
  <rect x="252" y="130" width="176" height="28" rx="6" fill="#fff" stroke="#e0e0e0" stroke-width="0.5"/>
  <text x="340" y="145" text-anchor="middle" fill="#111" font-size="12" font-family="sans-serif">用户请求 ?codes=x</text>
  <line x1="340" y1="158" x2="340" y2="172" stroke="#888780" stroke-width="1" marker-end="url(#arrow)"/>
  <rect x="252" y="174" width="176" height="28" rx="6" fill="#fff" stroke="#e0e0e0" stroke-width="0.5"/>
  <text x="340" y="189" text-anchor="middle" fill="#111" font-size="12" font-family="sans-serif">FTShare + WeStock 并发</text>
  <line x1="340" y1="202" x2="340" y2="216" stroke="#888780" stroke-width="1" marker-end="url(#arrow)"/>
  <rect x="252" y="218" width="176" height="28" rx="6" fill="#fff" stroke="#e0e0e0" stroke-width="0.5"/>
  <text x="340" y="233" text-anchor="middle" fill="#111" font-size="12" font-family="sans-serif">字段聚合</text>
  <line x1="340" y1="246" x2="340" y2="260" stroke="#888780" stroke-width="1" marker-end="url(#arrow)"/>
  <rect x="252" y="262" width="176" height="28" rx="6" fill="#fff" stroke="#e0e0e0" stroke-width="0.5"/>
  <text x="340" y="277" text-anchor="middle" fill="#111" font-size="12" font-family="sans-serif">内存缓存 5 分钟</text>
  <line x1="340" y1="290" x2="340" y2="304" stroke="#888780" stroke-width="1" marker-end="url(#arrow)"/>
  <rect x="252" y="306" width="176" height="28" rx="6" fill="#fff" stroke="#e0e0e0" stroke-width="0.5"/>
  <text x="340" y="321" text-anchor="middle" fill="#111" font-size="12" font-family="sans-serif">返回 JSON → 前端</text>
  <rect x="252" y="374" width="176" height="24" rx="6" fill="#EAF3DE" stroke="#97C459" stroke-width="0.5"/>
  <text x="340" y="388" text-anchor="middle" fill="#27500A" font-size="11" font-family="sans-serif">~300 行 · 极简</text>
  <rect x="252" y="348" width="176" height="18" rx="4" fill="#FCEBEB" stroke="none"/>
  <text x="340" y="359" text-anchor="middle" fill="#E24B4A" font-size="10" font-family="sans-serif">未解决：首页全量列表从哪来？</text>
  <!-- C -->
  <rect x="452" y="68" width="210" height="340" rx="12" fill="#fff" stroke="#e0e0e0" stroke-width="0.5"/>
  <rect x="452" y="68" width="210" height="34" rx="12" fill="#EAF3DE" stroke="#97C459" stroke-width="0.5"/>
  <rect x="452" y="90" width="210" height="12" fill="#EAF3DE"/>
  <text x="557" y="86" text-anchor="middle" fill="#27500A" font-size="13" font-weight="500" font-family="sans-serif">C · 快照 + 实时</text>
  <rect x="464" y="112" width="186" height="54" rx="6" fill="#fff" stroke="#e0e0e0" stroke-width="0.5"/>
  <text x="557" y="130" text-anchor="middle" fill="#111" font-size="12" font-weight="500" font-family="sans-serif">首页快照</text>
  <text x="557" y="148" text-anchor="middle" fill="#666" font-size="11" font-family="sans-serif">每日 cron 取全量 → JSON</text>
  <line x1="557" y1="166" x2="557" y2="180" stroke="#888780" stroke-width="1" marker-end="url(#arrow)"/>
  <rect x="464" y="182" width="186" height="54" rx="6" fill="#fff" stroke="#e0e0e0" stroke-width="0.5"/>
  <text x="557" y="200" text-anchor="middle" fill="#111" font-size="12" font-weight="500" font-family="sans-serif">对比页实时</text>
  <text x="557" y="218" text-anchor="middle" fill="#666" font-size="11" font-family="sans-serif">FTShare + WeStock → 缓存5分钟</text>
  <line x1="557" y1="236" x2="557" y2="250" stroke="#888780" stroke-width="1" marker-end="url(#arrow)"/>
  <rect x="464" y="252" width="186" height="28" rx="6" fill="#fff" stroke="#e0e0e0" stroke-width="0.5"/>
  <text x="557" y="267" text-anchor="middle" fill="#111" font-size="12" font-family="sans-serif">服务端一次渲染，不跳变</text>
  <line x1="557" y1="280" x2="557" y2="294" stroke="#888780" stroke-width="1" marker-end="url(#arrow)"/>
  <rect x="464" y="296" width="186" height="28" rx="6" fill="#fff" stroke="#e0e0e0" stroke-width="0.5"/>
  <text x="557" y="311" text-anchor="middle" fill="#111" font-size="12" font-family="sans-serif">对比页 + 首页分离</text>
  <rect x="464" y="374" width="186" height="24" rx="6" fill="#EAF3DE" stroke="#97C459" stroke-width="0.5"/>
  <text x="557" y="388" text-anchor="middle" fill="#27500A" font-size="11" font-family="sans-serif">~500 行 · 最优</text>
  <!-- 对比区 -->
  <rect x="18" y="422" width="644" height="330" rx="12" fill="#fff" stroke="#e0e0e0" stroke-width="0.5"/>
  <text x="340" y="448" text-anchor="middle" fill="#111" font-size="14" font-weight="500" font-family="sans-serif">多维度对比</text>
  <!-- 表头 -->
  <rect x="140" y="462" width="130" height="24" rx="4" fill="#FCEBEB" stroke="#F09595" stroke-width="0.5"/>
  <text x="205" y="476" text-anchor="middle" fill="#791F1F" font-size="11" font-family="sans-serif">A · 当前架构</text>
  <rect x="280" y="462" width="118" height="24" rx="4" fill="#FAEEDA" stroke="#EF9F27" stroke-width="0.5"/>
  <text x="339" y="476" text-anchor="middle" fill="#633806" font-size="11" font-family="sans-serif">B · 纯实时</text>
  <rect x="408" y="462" width="118" height="24" rx="4" fill="#EAF3DE" stroke="#97C459" stroke-width="0.5"/>
  <text x="467" y="476" text-anchor="middle" fill="#27500A" font-size="11" font-family="sans-serif">C · 快照+实时</text>
  <!-- 维度 -->
  <g font-family="sans-serif" font-size="12">
    <text x="50" y="502" fill="#111" font-size="12" font-weight="500">代码量</text>
    <rect x="140" y="490" width="130" height="22" rx="4" fill="#FCEBEB" stroke="#E24B4A" stroke-width="0.5"/><text x="205" y="504" text-anchor="middle" fill="#791F1F" font-size="11">3250 行</text>
    <rect x="280" y="490" width="118" height="22" rx="4" fill="#EAF3DE" stroke="#97C459" stroke-width="0.5"/><text x="339" y="504" text-anchor="middle" fill="#27500A" font-size="11">~300 行</text>
    <rect x="408" y="490" width="118" height="22" rx="4" fill="#E6F1FB" stroke="#85B7EB" stroke-width="0.5"/><text x="467" y="504" text-anchor="middle" fill="#0C447C" font-size="11">~500 行</text>
    <text x="50" y="536" fill="#111" font-size="12" font-weight="500">数据一致性</text>
    <rect x="140" y="524" width="130" height="22" rx="4" fill="#FCEBEB" stroke="#F09595" stroke-width="0.5"/><text x="205" y="538" text-anchor="middle" fill="#791F1F" font-size="11">跳变 (双数据源)</text>
    <rect x="280" y="524" width="118" height="22" rx="4" fill="#EAF3DE" stroke="#97C459" stroke-width="0.5"/><text x="339" y="538" text-anchor="middle" fill="#27500A" font-size="11">一致</text>
    <rect x="408" y="524" width="118" height="22" rx="4" fill="#EAF3DE" stroke="#97C459" stroke-width="0.5"/><text x="467" y="538" text-anchor="middle" fill="#27500A" font-size="11">一致</text>
    <text x="50" y="570" fill="#111" font-size="12" font-weight="500">维护成本</text>
    <rect x="140" y="558" width="130" height="22" rx="4" fill="#FCEBEB" stroke="#E24B4A" stroke-width="0.5"/><text x="205" y="572" text-anchor="middle" fill="#791F1F" font-size="11">今天 4 个 bug</text>
    <rect x="280" y="558" width="118" height="22" rx="4" fill="#EAF3DE" stroke="#97C459" stroke-width="0.5"/><text x="339" y="572" text-anchor="middle" fill="#27500A" font-size="11">低</text>
    <rect x="408" y="558" width="118" height="22" rx="4" fill="#EAF3DE" stroke="#97C459" stroke-width="0.5"/><text x="467" y="572" text-anchor="middle" fill="#27500A" font-size="11">最低</text>
    <text x="50" y="604" fill="#111" font-size="12" font-weight="500">首页全量列表</text>
    <rect x="140" y="592" width="130" height="22" rx="4" fill="#E6F1FB" stroke="#85B7EB" stroke-width="0.5"/><text x="205" y="606" text-anchor="middle" fill="#0C447C" font-size="11">快照 (支持)</text>
    <rect x="280" y="592" width="118" height="22" rx="4" fill="#FCEBEB" stroke="#E24B4A" stroke-width="0.5"/><text x="339" y="606" text-anchor="middle" fill="#791F1F" font-size="11">需额外方案</text>
    <rect x="408" y="592" width="118" height="22" rx="4" fill="#EAF3DE" stroke="#97C459" stroke-width="0.5"/><text x="467" y="606" text-anchor="middle" fill="#27500A" font-size="11">快照 (支持)</text>
    <text x="50" y="638" fill="#111" font-size="12" font-weight="500">外部依赖风险</text>
    <rect x="140" y="626" width="130" height="22" rx="4" fill="#EAF3DE" stroke="#97C459" stroke-width="0.5"/><text x="205" y="640" text-anchor="middle" fill="#27500A" font-size="11">有本地兜底</text>
    <rect x="280" y="626" width="118" height="22" rx="4" fill="#FCEBEB" stroke="#E24B4A" stroke-width="0.5"/><text x="339" y="640" text-anchor="middle" fill="#791F1F" font-size="11">无兜底</text>
    <rect x="408" y="626" width="118" height="22" rx="4" fill="#FAEEDA" stroke="#EF9F27" stroke-width="0.5"/><text x="467" y="640" text-anchor="middle" fill="#633806" font-size="11">首页有兜底</text>
    <text x="50" y="672" fill="#111" font-size="12" font-weight="500">首次加载速度</text>
    <rect x="140" y="660" width="130" height="22" rx="4" fill="#FAEEDA" stroke="#EF9F27" stroke-width="0.5"/><text x="205" y="674" text-anchor="middle" fill="#633806" font-size="11">L1快+L2慢=中等</text>
    <rect x="280" y="660" width="118" height="22" rx="4" fill="#FAEEDA" stroke="#EF9F27" stroke-width="0.5"/><text x="339" y="674" text-anchor="middle" fill="#633806" font-size="11">2-4s (两API)</text>
    <rect x="408" y="660" width="118" height="22" rx="4" fill="#EAF3DE" stroke="#97C459" stroke-width="0.5"/><text x="467" y="674" text-anchor="middle" fill="#27500A" font-size="11">首页50ms 对比2s</text>
    <text x="50" y="706" fill="#111" font-size="12" font-weight="500">适合场景</text>
    <rect x="140" y="694" width="130" height="22" rx="4" fill="#fff" stroke="#e0e0e0" stroke-width="0.5"/><text x="205" y="708" text-anchor="middle" fill="#666" font-size="11">数据质量管理</text>
    <rect x="280" y="694" width="118" height="22" rx="4" fill="#fff" stroke="#e0e0e0" stroke-width="0.5"/><text x="339" y="708" text-anchor="middle" fill="#666" font-size="11">简单查询工具</text>
    <rect x="408" y="694" width="118" height="22" rx="4" fill="#EAF3DE" stroke="#97C459" stroke-width="0.5"/><text x="467" y="708" text-anchor="middle" fill="#27500A" font-size="11">ETF 对比工具</text>
  </g>
  <!-- 结论 -->
  <rect x="18" y="735" width="644" height="50" rx="12" fill="#EAF3DE" stroke="#97C459" stroke-width="0.5"/>
  <text x="340" y="754" text-anchor="middle" fill="#27500A" font-size="14" font-weight="500" font-family="sans-serif">推荐：方案 C · 快照 + 实时聚合</text>
  <text x="340" y="774" text-anchor="middle" fill="#3B6D11" font-size="12" font-family="sans-serif">保留快照的唯一价值（首页全量列表），对比页回归简洁的 API 聚合</text>
</svg>
